<svg width="73" height="73" viewBox="0 0 73 73" fill="none" xmlns="http://www.w3.org/2000/svg">
<g clip-path="url(#clip0_590_423)">
<path fill-rule="evenodd" clip-rule="evenodd" d="M60.9264 8.36187C61.1307 8.51102 61.1362 8.7256 61.078 8.93125C61.0206 9.13145 60.9191 9.31489 60.8455 9.5102C60.7901 9.65452 60.7334 9.80022 60.7024 9.95057C60.6657 10.1301 60.7888 10.2762 60.9569 10.2696C61.0612 10.2636 61.1691 10.2587 61.2674 10.2283C61.6039 10.1282 61.9394 10.1812 62.2797 10.2272C62.6327 10.2745 62.9248 10.4014 63.1572 10.6979C63.3941 11.0017 63.7683 11.2058 63.7713 11.6662C63.7724 11.7821 63.9251 11.7441 64.0296 11.745C64.3242 11.7477 64.4401 11.8659 64.3786 12.1123C64.3192 12.3542 64.3555 12.6387 64.0833 12.8031C63.9554 12.8795 63.995 13.0272 64.083 13.1475C64.2687 13.4043 64.5272 13.5249 64.8277 13.5404C65.0747 13.5509 65.2759 13.6189 65.4655 13.7945C65.7111 14.0217 66.0018 14.1032 66.3404 13.994C66.8133 13.8394 67.1997 13.9961 67.5326 14.3678C67.8125 14.6801 68.0765 15.0176 68.5034 15.1596C68.593 15.1894 68.6983 15.2876 68.7246 15.3761C68.812 15.6632 69.017 15.7812 69.2833 15.8567C69.4217 15.8938 69.4879 16.0195 69.4775 16.1658C69.4534 16.452 69.6388 16.5569 69.8649 16.5484C70.3423 16.5322 70.7963 16.7055 71.2683 16.7134C71.4285 16.7147 71.576 16.7568 71.6977 16.8785C71.8007 16.9815 71.8279 17.165 71.7183 17.2208C70.7268 17.7137 69.9888 18.5453 69.0937 19.1689C68.7523 19.4049 68.4582 19.7037 68.1432 19.9765C67.943 20.1511 67.7778 20.335 67.7967 20.6391C67.8104 20.8642 67.6706 21.0367 67.5023 21.1652C65.8442 22.4371 64.4857 24.0227 62.9752 25.4489C61.4635 26.8763 59.9961 28.3507 58.503 29.7994C57.9998 30.2885 57.4811 30.7604 56.9695 31.2416L56.9765 31.2486C55.6352 32.5525 54.2964 33.8608 52.9504 35.16C51.6791 36.3892 50.3962 37.6042 49.1237 38.8299C48.5996 39.3353 48.0872 39.8523 47.5725 40.3671C47.3139 40.6256 47.0269 40.8143 46.6769 40.9607C46.0786 41.2102 45.512 41.531 44.9256 41.8108C44.4569 42.0361 44.1327 42.4772 43.8037 42.8788C43.1419 43.6811 42.4148 44.4222 41.7331 45.2046C41.2558 45.7521 40.7596 46.2811 40.2894 46.8356C39.5001 47.7676 38.7016 48.6926 37.9076 49.6199C37.1642 50.4874 36.416 51.3503 35.6762 52.2212C34.5164 53.587 33.3307 54.9248 32.0353 56.1688C30.2928 57.8434 28.6205 59.5906 26.9083 61.298C24.0918 64.1052 21.2674 66.9062 18.4486 69.7109C18.2451 69.9144 18.0382 70.1097 17.782 70.2442C17.5189 70.3832 17.3438 70.3757 17.1446 70.1652C16.8589 69.8634 16.5283 69.5948 16.4222 69.1555C16.3704 68.9381 16.2124 68.7941 15.9791 68.7559C15.5944 69.0376 15.4146 68.665 15.1904 68.4796C14.9963 68.3179 14.6821 68.302 14.6107 67.9825C14.5864 67.8734 14.4382 67.8952 14.3428 67.8619C14.0043 67.7439 13.6213 67.7009 13.4035 67.3546C13.3882 67.3324 13.3728 67.308 13.3519 67.2938C13.3087 67.2667 13.2456 67.2105 13.2191 67.223C12.8323 67.4202 12.658 66.8711 12.3073 66.9527C12.2818 66.9571 12.2554 66.9648 12.2297 66.9624C11.9176 66.9327 11.8097 66.8112 11.8915 66.5024C11.9397 66.3161 11.9804 66.2121 11.7219 66.2296C11.6674 66.2326 11.5578 66.1479 11.555 66.0992C11.525 65.6096 11.0889 65.2241 11.1791 64.6984C11.2044 64.5467 10.7572 63.9617 10.5795 63.9334C10.3368 63.8952 10.2105 63.7757 10.0974 63.5799C10.0502 63.496 9.93601 63.4486 9.85433 63.3805C9.61481 63.1846 9.4286 62.9729 9.30039 62.6634C9.13673 62.2676 9.00996 61.849 8.72609 61.4845C8.50902 61.2076 8.55388 60.7906 8.57826 60.4151C8.60876 59.9492 8.37289 59.6584 7.90318 59.5125C7.76595 59.4695 7.66581 59.4245 7.60877 59.2873C7.55906 59.1661 7.50796 59.044 7.43864 58.9331C7.22555 58.5984 6.91487 58.3567 6.52709 58.4191C6.16003 58.4772 6.04039 58.33 5.86734 58.0489C5.69533 57.7668 5.41153 57.5356 5.13935 57.3326C4.90698 57.1577 4.64954 57.0313 4.53088 56.738C4.49649 56.6553 4.38232 56.5846 4.28908 56.5467C3.90144 56.3843 3.51787 56.1616 3.11378 56.1022C2.7386 56.0467 2.56988 55.8456 2.39218 55.5762C2.18758 55.2682 1.97497 54.9728 1.67822 54.7335C1.32901 54.4507 1.32552 54.1967 1.63315 53.868C2.12817 53.3356 2.61121 52.787 3.15058 52.2991C4.04075 51.4979 4.83509 50.6029 5.68784 49.7665C7.7461 47.7434 9.78215 45.7003 11.8334 43.6701C12.0161 43.4898 12.2292 43.3352 12.4459 43.1934C12.7537 42.9956 13.0535 42.7918 13.3085 42.5298C14.7742 41.0196 16.2295 39.4987 17.7058 37.999C18.8203 36.8682 19.8833 35.6952 20.8995 34.4753C21.3639 33.9196 21.9032 33.4248 22.4181 32.9099C23.4452 31.8781 24.4432 30.8145 25.5184 29.8377C26.8856 28.5945 28.1631 27.2632 29.4883 25.9801C31.5411 23.9905 33.5762 21.9812 35.6184 19.9811C36.1011 19.5077 36.5605 19.0155 37.1076 18.6089C37.3748 18.4119 37.5657 18.1158 37.807 17.8791C39.2712 16.4406 40.7341 15.0012 42.2089 13.5732C44.3937 11.4586 46.5858 9.35074 48.7813 7.24894C49.8504 6.22428 50.9346 5.21495 52.0164 4.2034C52.1683 4.06089 52.3364 3.93719 52.5035 3.81465C52.9309 3.50189 53.3673 3.30192 53.8434 3.75276C54.2131 3.84185 54.49 4.06357 54.7764 4.3132C55.0673 4.57007 55.4218 4.76559 55.8258 4.83205C56.2034 4.89454 56.4867 5.07469 56.6953 5.43028C56.9275 5.82541 57.0886 5.82818 57.5132 5.60016C57.968 5.35607 58.4679 5.37342 58.9654 5.39087C59.0512 5.39409 59.1381 5.49439 59.221 5.55661C59.5852 5.83143 59.9562 6.06908 60.4331 5.83331C60.4954 5.80141 60.5881 5.81873 60.665 5.83081C60.8088 5.85312 60.9025 5.94443 60.9363 6.08378C60.9544 6.157 60.975 6.25576 60.9441 6.31473C60.7333 6.7175 60.8059 7.17158 60.7134 7.59178C60.6453 7.90565 60.644 8.15739 60.9264 8.36187Z" fill="#D0D0A7"/>
</g>
<defs>
<clipPath id="clip0_590_423">
<rect width="78" height="24" fill="white" transform="translate(0 55.1543) rotate(-45)"/>
</clipPath>
</defs>
</svg>
