<svg width="20" height="21" viewBox="0 0 20 21" fill="none" xmlns="http://www.w3.org/2000/svg">
<g clip-path="url(#clip0_590_524)">
<path fill-rule="evenodd" clip-rule="evenodd" d="M9.96067 2.69696C11.2073 2.69696 12.454 2.69562 13.7007 2.69762C13.9873 2.69829 14.272 2.72496 14.5553 2.76962C14.8873 2.82229 15.212 2.90162 15.5293 3.01429C16.0513 3.19896 16.5293 3.46229 16.954 3.81896C17.3873 4.18362 17.7533 4.60629 18.036 5.09829C18.2887 5.53762 18.466 6.00629 18.5767 6.50029C18.626 6.72162 18.662 6.94429 18.6847 7.16962C18.7007 7.32629 18.7093 7.48429 18.7153 7.64162C18.7207 7.76696 18.72 7.89229 18.72 8.01762C18.7207 10.3676 18.7207 12.7176 18.72 15.0683C18.72 15.527 18.6773 15.981 18.5767 16.429C18.4787 16.873 18.328 17.2983 18.1153 17.701C17.9533 18.007 17.7593 18.2916 17.5313 18.5523C17.172 18.9636 16.7493 19.2956 16.2713 19.5583C15.8007 19.817 15.2993 19.9883 14.7733 20.0916C14.5147 20.1423 14.254 20.1756 13.99 20.191C13.8173 20.2016 13.6453 20.2063 13.4733 20.2063C11.0893 20.2063 8.70467 20.2076 6.32067 20.205C5.77467 20.2043 5.23667 20.133 4.71134 19.981C4.08334 19.7996 3.50934 19.5116 3.00001 19.0983C2.51267 18.703 2.11801 18.229 1.82201 17.675C1.55734 17.179 1.38667 16.6523 1.29467 16.099C1.25201 15.8436 1.22601 15.5863 1.21534 15.3283C1.21001 15.2016 1.20867 15.0743 1.20867 14.9476C1.20867 12.5943 1.20867 10.241 1.20801 7.88762C1.20801 7.73296 1.21001 7.57829 1.22001 7.42429C1.26067 6.76296 1.39667 6.12296 1.66334 5.51362C1.84934 5.08896 2.09134 4.69896 2.39467 4.34696C2.75067 3.93429 3.16867 3.59962 3.64601 3.33829C4.14334 3.06629 4.67401 2.89029 5.23067 2.79162C5.44334 2.75362 5.65867 2.72762 5.87401 2.71296C6.04001 2.70162 6.20534 2.69629 6.37134 2.69629C7.56867 2.69629 8.76467 2.69629 9.96067 2.69696C9.96067 2.69629 9.96067 2.69696 9.96067 2.69696ZM9.96201 18.5676C11.1553 18.5676 12.348 18.567 13.5407 18.5683C13.794 18.5683 14.0453 18.555 14.2947 18.5156C14.7107 18.4496 15.1087 18.3276 15.4807 18.1263C15.7993 17.9536 16.078 17.733 16.3187 17.4636C16.634 17.109 16.8527 16.6996 16.99 16.2463C17.108 15.855 17.1547 15.4543 17.1547 15.0463C17.1553 12.723 17.1547 10.3983 17.1547 8.07429C17.1547 7.93896 17.1553 7.80429 17.1493 7.66962C17.142 7.49162 17.1267 7.31562 17.098 7.14096C17.0073 6.58429 16.806 6.07296 16.4753 5.61296C16.3033 5.37362 16.1 5.16429 15.8613 4.98962C15.5233 4.74229 15.1493 4.57296 14.7453 4.46696C14.372 4.36896 13.99 4.33162 13.6053 4.33162C11.24 4.33096 8.87534 4.33162 6.51134 4.33162C6.40667 4.33162 6.30267 4.33229 6.19867 4.33629C6.03067 4.34296 5.86401 4.35562 5.69801 4.37829C5.38067 4.42096 5.07201 4.49829 4.77467 4.61696C4.43667 4.75096 4.12934 4.93496 3.86267 5.18296C3.62134 5.40696 3.42467 5.66696 3.26867 5.95829C3.00867 6.44496 2.88867 6.96962 2.85401 7.51629C2.84201 7.69696 2.84401 7.87762 2.84401 8.05829C2.84401 10.2896 2.84401 12.521 2.84401 14.7523C2.84401 14.923 2.84201 15.0943 2.84934 15.265C2.85867 15.4703 2.87734 15.6736 2.91201 15.8763C2.97934 16.269 3.10067 16.643 3.29467 16.993C3.43067 17.2376 3.59534 17.4616 3.79601 17.6563C4.00067 17.855 4.23334 18.0156 4.48601 18.1476C4.94734 18.3883 5.44201 18.5103 5.95801 18.5543C6.10534 18.5676 6.25334 18.5676 6.40201 18.5676C7.58934 18.5676 8.77601 18.5676 9.96201 18.5676Z" fill="#04282D"/>
<path fill-rule="evenodd" clip-rule="evenodd" d="M14.486 11.3737C14.486 11.8977 14.4107 12.3664 14.26 12.823C14.082 13.3644 13.81 13.8544 13.4474 14.293C13.082 14.7344 12.6494 15.0944 12.1487 15.373C11.6894 15.6284 11.1987 15.7977 10.68 15.881C10.4954 15.9104 10.3087 15.927 10.122 15.9337C9.42868 15.9584 8.76535 15.831 8.13068 15.553C7.73002 15.377 7.36335 15.1464 7.03068 14.8624C6.61535 14.5084 6.27468 14.093 6.00935 13.6157C5.78135 13.205 5.62202 12.7697 5.53068 12.3097C5.49335 12.123 5.46868 11.9344 5.45535 11.7444C5.44735 11.6357 5.44202 11.5264 5.44268 11.4177C5.44335 11.2424 5.45268 11.067 5.47402 10.8917C5.50335 10.6424 5.55268 10.397 5.62268 10.1557C5.79535 9.56503 6.07735 9.03237 6.46735 8.55637C6.74868 8.21303 7.07335 7.91637 7.44135 7.6677C7.85202 7.39037 8.29668 7.1857 8.77468 7.05437C9.01535 6.98837 9.26002 6.94303 9.50802 6.91637C9.72335 6.89303 9.94002 6.88637 10.1567 6.89703C10.74 6.92503 11.2987 7.05903 11.8294 7.30437C12.2314 7.4897 12.598 7.72837 12.9307 8.02037C13.4074 8.4377 13.782 8.93303 14.0547 9.50437C14.246 9.90703 14.3754 10.3284 14.4387 10.7697C14.4707 11.001 14.4867 11.2177 14.486 11.3737ZM9.96268 14.2997C11.514 14.3117 12.846 13.027 12.85 11.4224C12.8534 9.84503 11.56 8.5337 9.97068 8.53037C8.36268 8.5277 7.07935 9.85303 7.07868 11.4144C7.07735 12.9977 8.39068 14.309 9.96268 14.2997Z" fill="#04282D"/>
<path fill-rule="evenodd" clip-rule="evenodd" d="M15.6846 6.79496C15.6853 7.36096 15.222 7.82629 14.6566 7.82429C14.0886 7.82229 13.6266 7.37429 13.626 6.79763C13.626 6.21296 14.088 5.76496 14.656 5.76563C15.2546 5.76763 15.6833 6.25096 15.6846 6.79496Z" fill="#04282D"/>
</g>
<defs>
<clipPath id="clip0_590_524">
<rect width="20" height="20" fill="white" transform="translate(0 0.998047)"/>
</clipPath>
</defs>
</svg>
