<svg width="15" height="15" viewBox="0 0 15 15" fill="none" xmlns="http://www.w3.org/2000/svg">
<path d="M6.93066 0.442188L6.94109 0.443894M6.93066 0.442188L6.94109 0.443894M6.93066 0.442188L6.9411 0.443897L6.94109 0.443894M6.93066 0.442188L6.94109 0.443894M3.40246 1.86422C4.38545 1.15021 5.54019 0.687433 6.75907 0.519268C6.21465 1.07252 5.77999 1.71976 5.47843 2.42878C5.15298 3.19395 4.98939 4.015 4.99781 4.84326C5.00665 5.93053 5.30697 6.99602 5.86816 7.9358C6.42938 8.87563 7.23185 9.65697 8.19575 10.2053C9.15955 10.7536 10.2527 11.0508 11.3689 11.0692C12.4332 11.0867 13.4854 10.8501 14.4325 10.3805C13.9331 11.4393 13.1676 12.3644 12.202 13.0705C11.1803 13.8176 9.97134 14.2925 8.69655 14.4458C7.42174 14.5992 6.12795 14.4254 4.94591 13.9425C3.76396 13.4596 2.73677 12.6854 1.96648 11.6997C1.1963 10.7141 0.709841 9.55153 0.554245 8.32943C0.398657 7.10738 0.579119 5.86689 1.07827 4.7324C1.57749 3.59778 2.37844 2.60804 3.40246 1.86422ZM6.94331 0.444258L6.9433 0.444255L6.94889 0.44517L6.94331 0.444258ZM14.5398 10.2524L14.5469 10.2507L14.5469 10.2507L14.5398 10.2524Z" stroke="white"/>
</svg>
