<svg width="20" height="21" viewBox="0 0 20 21" fill="none" xmlns="http://www.w3.org/2000/svg">
<g clip-path="url(#clip0_590_522)">
<path fill-rule="evenodd" clip-rule="evenodd" d="M9.21732 14.1041C9.20065 14.1241 9.20065 14.1434 9.19599 14.1601C9.05732 14.7041 8.92065 15.2488 8.78132 15.7921C8.68932 16.1534 8.59932 16.5148 8.49999 16.8741C8.41665 17.1754 8.30465 17.4674 8.17599 17.7521C7.90665 18.3501 7.57199 18.9121 7.20132 19.4521C7.04732 19.6761 6.88599 19.8948 6.71932 20.1094C6.70599 20.1261 6.69399 20.1434 6.67932 20.1588C6.63932 20.2014 6.58999 20.2181 6.53332 20.2021C6.47599 20.1861 6.44265 20.1474 6.43399 20.0881C6.40332 19.8821 6.37732 19.6761 6.35399 19.4688C6.33065 19.2568 6.31532 19.0441 6.29932 18.8321C6.29465 18.7688 6.29265 18.7054 6.28932 18.6421C6.27465 18.3608 6.27132 18.0788 6.27932 17.7974C6.29399 17.3108 6.33665 16.8261 6.44265 16.3494C6.48865 16.1414 6.53999 15.9348 6.58865 15.7268C6.75665 15.0161 6.92465 14.3048 7.09265 13.5941C7.22932 13.0161 7.36532 12.4388 7.50132 11.8601C7.58332 11.5128 7.66532 11.1661 7.74732 10.8201C7.75665 10.7801 7.75399 10.7461 7.73732 10.7074C7.61199 10.4141 7.53332 10.1074 7.48599 9.79209C7.44732 9.53676 7.42999 9.28076 7.44065 9.02343C7.45999 8.54143 7.56332 8.07876 7.78665 7.6481C7.93932 7.3521 8.14065 7.09476 8.40599 6.89076C8.65199 6.7021 8.92732 6.58543 9.23665 6.55343C9.45599 6.53143 9.67199 6.5521 9.88132 6.62343C10.164 6.72076 10.3793 6.90076 10.5313 7.15676C10.6533 7.36209 10.716 7.58609 10.7433 7.82143C10.7673 8.03409 10.7567 8.24676 10.7273 8.45876C10.676 8.83209 10.5787 9.19476 10.4747 9.55609C10.322 10.0854 10.1473 10.6094 9.99865 11.1408C9.94399 11.3354 9.88732 11.5294 9.85065 11.7274C9.77399 12.1448 9.83599 12.5388 10.0787 12.8934C10.2913 13.2054 10.5873 13.4061 10.948 13.5121C11.1707 13.5774 11.398 13.5934 11.6287 13.5754C12.0987 13.5368 12.508 13.3548 12.8747 13.0648C13.1633 12.8361 13.3987 12.5594 13.602 12.2541C13.826 11.9181 14.0007 11.5568 14.144 11.1801C14.3293 10.6914 14.4527 10.1861 14.5347 9.67076C14.5673 9.46543 14.592 9.25876 14.608 9.05076C14.622 8.8721 14.632 8.69343 14.6387 8.51476C14.6433 8.39409 14.6467 8.2741 14.644 8.15343C14.6333 7.62543 14.546 7.11143 14.342 6.62076C14.1867 6.2461 13.9733 5.90743 13.6993 5.6081C13.4327 5.31676 13.1233 5.0821 12.7767 4.89476C12.372 4.6761 11.94 4.53743 11.488 4.45543C11.298 4.42076 11.106 4.3981 10.9127 4.38343C10.698 4.36743 10.4833 4.36076 10.2687 4.36876C9.59532 4.39143 8.94465 4.5201 8.32465 4.78943C7.89199 4.97743 7.49532 5.22343 7.13665 5.53143C6.81865 5.80476 6.54332 6.11543 6.30999 6.46343C5.96999 6.97076 5.73732 7.5241 5.60732 8.12076C5.56465 8.31609 5.53532 8.51409 5.51532 8.71343C5.49332 8.95676 5.48932 9.19809 5.50199 9.43809C5.52465 9.87009 5.62132 10.2848 5.82332 10.6708C5.92332 10.8621 6.04599 11.0374 6.18599 11.2008C6.22932 11.2521 6.26865 11.3054 6.29865 11.3661C6.33599 11.4394 6.34665 11.5174 6.33399 11.5981C6.31532 11.7128 6.28132 11.8234 6.25265 11.9354C6.20332 12.1308 6.15399 12.3268 6.10399 12.5221C6.09465 12.5588 6.08399 12.5941 6.06865 12.6281C5.99665 12.7908 5.84732 12.8661 5.67332 12.8294C5.59465 12.8128 5.52332 12.7761 5.45132 12.7428C5.14132 12.5981 4.86665 12.4028 4.62599 12.1601C4.40865 11.9401 4.22865 11.6914 4.08065 11.4201C3.84332 10.9861 3.69599 10.5208 3.60932 10.0354C3.56999 9.81743 3.54399 9.59809 3.52999 9.37676C3.51799 9.18809 3.50932 9.00009 3.51599 8.81076C3.52799 8.43943 3.57465 8.0721 3.65932 7.70943C3.76065 7.27343 3.90932 6.8541 4.10199 6.4501C4.32999 5.97343 4.61332 5.5321 4.95065 5.1261C5.39732 4.58876 5.91865 4.1361 6.51065 3.76476C7.12065 3.3821 7.77599 3.10543 8.47065 2.91943C8.80132 2.83076 9.13599 2.7641 9.47532 2.7181C9.68799 2.68943 9.90132 2.66943 10.116 2.65476C10.4147 2.6341 10.714 2.6321 11.014 2.6401C11.282 2.64743 11.5493 2.67276 11.8153 2.71143C12.128 2.75676 12.4367 2.8221 12.7407 2.90876C13.0507 2.99743 13.3533 3.10743 13.6473 3.24076C13.962 3.38343 14.264 3.5501 14.5507 3.74276C14.8107 3.91676 15.0553 4.11076 15.286 4.32276C15.646 4.65476 15.96 5.0241 16.226 5.43476C16.6 6.01143 16.8627 6.63476 17.006 7.30743C17.0607 7.5641 17.096 7.82276 17.1127 8.08543C17.128 8.33143 17.1247 8.57676 17.1167 8.82209C17.1073 9.09809 17.0853 9.37409 17.0507 9.64876C17.0087 9.98143 16.9513 10.3114 16.8733 10.6374C16.7613 11.1108 16.6107 11.5708 16.414 12.0148C16.186 12.5288 15.9027 13.0108 15.5493 13.4488C15.21 13.8701 14.82 14.2374 14.3687 14.5368C13.838 14.8894 13.2593 15.1288 12.6327 15.2488C12.426 15.2888 12.2187 15.3141 12.0087 15.3281C11.848 15.3394 11.6867 15.3408 11.5253 15.3348C11.2793 15.3254 11.0373 15.2834 10.8 15.2154C10.466 15.1194 10.152 14.9794 9.86599 14.7814C9.62932 14.6181 9.42065 14.4268 9.26465 14.1828C9.24999 14.1574 9.23532 14.1328 9.21732 14.1041Z" fill="#04282D"/>
</g>
<defs>
<clipPath id="clip0_590_522">
<rect width="20" height="20" fill="white" transform="translate(0 0.998047)"/>
</clipPath>
</defs>
</svg>
