<svg width="16" height="15" viewBox="0 0 16 15" fill="none" xmlns="http://www.w3.org/2000/svg">
<path d="M7.78516 12C5.30416 12 3.28516 9.9815 3.28516 7.5C3.28516 5.019 5.30416 3 7.78516 3C10.2667 3 12.2852 5.019 12.2852 7.5C12.2852 9.9815 10.2667 12 7.78516 12ZM7.78516 4C5.85516 4 4.28516 5.57 4.28516 7.5C4.28516 9.4295 5.85516 11 7.78516 11C9.71466 11 11.2852 9.4295 11.2852 7.5C11.2852 5.57 9.71466 4 7.78516 4Z" fill="white"/>
<path d="M7.78516 15C7.50916 15 7.28516 14.7765 7.28516 14.5V13C7.28516 12.7235 7.50916 12.5 7.78516 12.5C8.06116 12.5 8.28516 12.7235 8.28516 13V14.5C8.28516 14.7765 8.06116 15 7.78516 15ZM12.7347 12.9495C12.6067 12.9495 12.4787 12.9005 12.3812 12.803L11.3207 11.7425C11.1252 11.547 11.1252 11.231 11.3207 11.0355C11.5162 10.84 11.8322 10.84 12.0277 11.0355L13.0882 12.096C13.2837 12.2915 13.2837 12.6075 13.0882 12.803C12.9907 12.901 12.8627 12.9495 12.7347 12.9495ZM2.83566 12.9495C2.70766 12.9495 2.57966 12.9005 2.48216 12.803C2.28666 12.6075 2.28666 12.2915 2.48216 12.096L3.54266 11.0355C3.73816 10.84 4.05416 10.84 4.24966 11.0355C4.44516 11.231 4.44516 11.547 4.24966 11.7425L3.18916 12.803C3.09116 12.901 2.96316 12.9495 2.83566 12.9495ZM14.7852 8H13.2852C13.0087 8 12.7852 7.7765 12.7852 7.5C12.7852 7.224 13.0087 7 13.2852 7H14.7852C15.0617 7 15.2852 7.224 15.2852 7.5C15.2852 7.7765 15.0617 8 14.7852 8ZM2.28516 8H0.785156C0.509156 8 0.285156 7.7765 0.285156 7.5C0.285156 7.224 0.509156 7 0.785156 7H2.28516C2.56116 7 2.78516 7.224 2.78516 7.5C2.78516 7.7765 2.56116 8 2.28516 8ZM11.6742 4.111C11.5462 4.111 11.4182 4.062 11.3207 3.9645C11.1252 3.769 11.1252 3.453 11.3207 3.2575L12.3812 2.197C12.5767 2.0015 12.8927 2.0015 13.0882 2.197C13.2837 2.3925 13.2837 2.7085 13.0882 2.904L12.0277 3.9645C11.9302 4.062 11.8022 4.111 11.6742 4.111ZM3.89616 4.111C3.76816 4.111 3.64016 4.062 3.54266 3.9645L2.48216 2.904C2.28666 2.7085 2.28666 2.3925 2.48216 2.197C2.67766 2.0015 2.99366 2.0015 3.18916 2.197L4.24966 3.2575C4.44516 3.453 4.44516 3.769 4.24966 3.9645C4.15166 4.062 4.02416 4.111 3.89616 4.111ZM7.78516 2.5C7.50916 2.5 7.28516 2.276 7.28516 2V0.5C7.28516 0.224 7.50916 0 7.78516 0C8.06116 0 8.28516 0.224 8.28516 0.5V2C8.28516 2.276 8.06116 2.5 7.78516 2.5Z" fill="white"/>
</svg>
