<svg width="30" height="31" viewBox="0 0 30 31" fill="none" xmlns="http://www.w3.org/2000/svg">
<path d="M22.56 12.978C22.571 13.138 22.571 13.298 22.571 13.458C22.571 18.458 18.76 24.218 11.811 24.218C9.68099 24.218 7.691 23.598 6.021 22.518C6.311 22.558 6.611 22.579 6.921 22.579C8.691 22.579 10.321 21.969 11.611 20.959C9.961 20.929 8.561 19.829 8.081 18.329C8.311 18.379 8.55099 18.399 8.79099 18.399C9.14099 18.399 9.47099 18.348 9.79099 18.268C8.06099 17.918 6.761 16.389 6.761 14.559V14.509C7.271 14.799 7.85099 14.969 8.47099 14.989C7.45099 14.309 6.79099 13.149 6.79099 11.839C6.79099 11.149 6.97099 10.499 7.30099 9.93902C9.161 12.229 11.951 13.729 15.091 13.889C15.031 13.609 14.991 13.319 14.991 13.029C14.991 10.939 16.691 9.24902 18.77 9.24902C19.861 9.24902 20.84 9.70902 21.531 10.439C22.39 10.269 23.201 9.95902 23.93 9.51902C23.651 10.409 23.05 11.149 22.27 11.609C23.041 11.519 23.76 11.319 24.441 11.019C23.941 11.778 23.29 12.438 22.56 12.978Z" fill="#04282D"/>
</svg>
