<svg width="20" height="21" viewBox="0 0 20 21" fill="none" xmlns="http://www.w3.org/2000/svg">
<path d="M18.2334 6.8582C18.0401 6.1182 17.4534 5.5382 16.7141 5.3382C15.3734 4.98486 10.0001 4.98486 10.0001 4.98486C10.0001 4.98486 4.62674 4.98486 3.28674 5.3382C2.54674 5.5382 1.96007 6.1182 1.76674 6.8582C1.40674 8.1982 1.40674 10.9982 1.40674 10.9982C1.40674 10.9982 1.40674 13.7982 1.76674 15.1382C1.96007 15.8782 2.54674 16.4582 3.28674 16.6582C4.62674 17.0182 10.0001 17.0182 10.0001 17.0182C10.0001 17.0182 15.3734 17.0182 16.7134 16.6582C17.4527 16.4582 18.0394 15.8782 18.2327 15.1382C18.5934 13.7982 18.5934 10.9982 18.5934 10.9982C18.5934 10.9982 18.5934 8.1982 18.2334 6.8582ZM8.28007 13.5782V8.4182L12.7467 10.9982L8.28007 13.5782Z" fill="#04282D"/>
</svg>
